# xmcd
#
# Track frame offsets: 
#        150
#        19987
#        39117
#        58817
#        89375
#        101117
#        110037
#        128276
#        146029
#        159215
#        186133
#        200037
#        212598
#        224818
#        239733
#
# Disc length: 3399 seconds
#
# Revision: 5
# Processed by: cddbd v1.5.2PL0 Copyright (c) Steve Scherf et al.
# Submitted via: ExactAudioCopy v0.99pb5
#
DISCID=e10d450f
DTITLE=Various Artist - American Folk Blues Festival '64
DYEAR=1900
DGENRE=Blues
TTITLE0=Sonny Boy Williamson - I'm Trying to Make London My Home
TTITLE1=Sonny Boy Williamson - Dissatisfied
TTITLE2=Sunnyland Slim - Everytime I Get To Drinkin'
TTITLE3=Lightnin' Hopkins - Ain't It a Pity
TTITLE4=Lightnin' Hopkins - Baby Please Don't Go
TTITLE5=Sleepy John Estes - I'm A Tearing Little Daddy
TTITLE6=John Henry Barbee - I Ain't Gonna Pick No More Cotton
TTITLE7=Hubert Sumlin - No Title Boogie
TTITLE8=Sugar Pie DeSanto - Slip-In Mules
TTITLE9=Howlin' Wolf - Dust My Broom
TTITLE10=Sonny Boy Williamson - I Got To Cut Out
TTITLE11=Willie Dixon - Weak Brain and Narrow Mind
TTITLE12=Willie Dixon - Big Legged Woman
TTITLE13=Sleepy John Estes - Your Best Friend's Gone
TTITLE14=Sugar Pie DeSanto - Baby What You Want Me To Do
EXTD=Recorded live in Hamburg, Germany on October 9, 1964. YEAR: 0
EXTT0=
EXTT1=
EXTT2=
EXTT3=
EXTT4=
EXTT5=
EXTT6=
EXTT7=
EXTT8=
EXTT9=
EXTT10=
EXTT11=
EXTT12=
EXTT13=
EXTT14=
PLAYORDER=
